<svg width="1150" height="1150" viewBox="0 0 1150 1150" fill="none" xmlns="http://www.w3.org/2000/svg">
<rect width="1150" height="1150" rx="235" fill="#141429"/>
<path d="M422.487 923V802.121H601.308C646.596 802.121 686.223 792.797 720.189 774.149C754.155 754.835 780.462 727.862 799.11 693.23C818.424 658.598 828.081 617.639 828.081 570.353C828.081 524.399 818.424 484.439 799.11 450.473C779.796 415.841 753.156 389.201 719.19 370.553C685.224 351.239 645.93 341.582 601.308 341.582H419.49V220.703H603.306C655.254 220.703 703.206 229.361 747.162 246.677C791.784 263.993 830.412 288.635 863.046 320.603C896.346 351.905 921.987 388.868 939.969 431.492C958.617 474.116 967.941 520.736 967.941 571.352C967.941 621.968 958.617 668.921 939.969 712.211C921.987 754.835 896.679 792.131 864.045 824.099C831.411 855.401 792.783 879.71 748.161 897.026C704.205 914.342 656.586 923 605.304 923H422.487ZM329.58 923V220.703H465.444V923H329.58Z" fill="white"/>
<g filter="url(#filter0_i_149_24)">
<path d="M234.691 481H565.542" stroke="#8B67C5" stroke-width="40" stroke-linecap="round"/>
</g>
<g filter="url(#filter1_i_149_24)">
<path d="M187.854 574H518.705" stroke="#8B67C5" stroke-width="40" stroke-linecap="round"/>
</g>
<g filter="url(#filter2_i_149_24)">
<path d="M146 668H476.851" stroke="#8B67C5" stroke-width="40" stroke-linecap="round"/>
</g>
<defs>
<filter id="filter0_i_149_24" x="214.691" y="461" width="370.851" height="44" filterUnits="userSpaceOnUse" color-interpolation-filters="sRGB">
<feFlood flood-opacity="0" result="BackgroundImageFix"/>
<feBlend mode="normal" in="SourceGraphic" in2="BackgroundImageFix" result="shape"/>
<feColorMatrix in="SourceAlpha" type="matrix" values="0 0 0 0 0 0 0 0 0 0 0 0 0 0 0 0 0 0 127 0" result="hardAlpha"/>
<feOffset dy="4"/>
<feGaussianBlur stdDeviation="2"/>
<feComposite in2="hardAlpha" operator="arithmetic" k2="-1" k3="1"/>
<feColorMatrix type="matrix" values="0 0 0 0 0 0 0 0 0 0 0 0 0 0 0 0 0 0 0.25 0"/>
<feBlend mode="normal" in2="shape" result="effect1_innerShadow_149_24"/>
</filter>
<filter id="filter1_i_149_24" x="167.854" y="554" width="370.851" height="44" filterUnits="userSpaceOnUse" color-interpolation-filters="sRGB">
<feFlood flood-opacity="0" result="BackgroundImageFix"/>
<feBlend mode="normal" in="SourceGraphic" in2="BackgroundImageFix" result="shape"/>
<feColorMatrix in="SourceAlpha" type="matrix" values="0 0 0 0 0 0 0 0 0 0 0 0 0 0 0 0 0 0 127 0" result="hardAlpha"/>
<feOffset dy="4"/>
<feGaussianBlur stdDeviation="2"/>
<feComposite in2="hardAlpha" operator="arithmetic" k2="-1" k3="1"/>
<feColorMatrix type="matrix" values="0 0 0 0 0 0 0 0 0 0 0 0 0 0 0 0 0 0 0.25 0"/>
<feBlend mode="normal" in2="shape" result="effect1_innerShadow_149_24"/>
</filter>
<filter id="filter2_i_149_24" x="126" y="648" width="370.851" height="44" filterUnits="userSpaceOnUse" color-interpolation-filters="sRGB">
<feFlood flood-opacity="0" result="BackgroundImageFix"/>
<feBlend mode="normal" in="SourceGraphic" in2="BackgroundImageFix" result="shape"/>
<feColorMatrix in="SourceAlpha" type="matrix" values="0 0 0 0 0 0 0 0 0 0 0 0 0 0 0 0 0 0 127 0" result="hardAlpha"/>
<feOffset dy="4"/>
<feGaussianBlur stdDeviation="2"/>
<feComposite in2="hardAlpha" operator="arithmetic" k2="-1" k3="1"/>
<feColorMatrix type="matrix" values="0 0 0 0 0 0 0 0 0 0 0 0 0 0 0 0 0 0 0.25 0"/>
<feBlend mode="normal" in2="shape" result="effect1_innerShadow_149_24"/>
</filter>
</defs>
</svg>
