<svg width="1154" height="1259" viewBox="0 0 1154 1259" fill="none" xmlns="http://www.w3.org/2000/svg">
<rect y="82" width="1154" height="1094" rx="235" fill="#141429"/>
<path d="M425.173 999V878.121H603.994C649.282 878.121 688.909 868.797 722.875 850.149C756.841 830.835 783.148 803.862 801.796 769.23C821.11 734.598 830.767 693.639 830.767 646.353C830.767 600.399 821.11 560.439 801.796 526.473C782.482 491.841 755.842 465.201 721.876 446.553C687.91 427.239 648.616 417.582 603.994 417.582H422.176V296.703H605.992C657.94 296.703 705.892 305.361 749.848 322.677C794.47 339.993 833.098 364.635 865.732 396.603C899.032 427.905 924.673 464.868 942.655 507.492C961.303 550.116 970.627 596.736 970.627 647.352C970.627 697.968 961.303 744.921 942.655 788.211C924.673 830.835 899.365 868.131 866.731 900.099C834.097 931.401 795.469 955.71 750.847 973.026C706.891 990.342 659.272 999 607.99 999H425.173ZM332.266 999V296.703H468.13V999H332.266Z" fill="#00B789"/>
<g filter="url(#filter0_i_101_38)">
<path d="M236 557H568.002" stroke="#8B67C5" stroke-width="40" stroke-linecap="round"/>
</g>
<g filter="url(#filter1_i_101_38)">
<path d="M189 650H521.002" stroke="#8B67C5" stroke-width="40" stroke-linecap="round"/>
</g>
<g filter="url(#filter2_i_101_38)">
<path d="M147 744H479.002" stroke="#8B67C5" stroke-width="40" stroke-linecap="round"/>
</g>
<defs>
<filter id="filter0_i_101_38" x="216" y="537" width="372.001" height="44" filterUnits="userSpaceOnUse" color-interpolation-filters="sRGB">
<feFlood flood-opacity="0" result="BackgroundImageFix"/>
<feBlend mode="normal" in="SourceGraphic" in2="BackgroundImageFix" result="shape"/>
<feColorMatrix in="SourceAlpha" type="matrix" values="0 0 0 0 0 0 0 0 0 0 0 0 0 0 0 0 0 0 127 0" result="hardAlpha"/>
<feOffset dy="4"/>
<feGaussianBlur stdDeviation="2"/>
<feComposite in2="hardAlpha" operator="arithmetic" k2="-1" k3="1"/>
<feColorMatrix type="matrix" values="0 0 0 0 0 0 0 0 0 0 0 0 0 0 0 0 0 0 0.25 0"/>
<feBlend mode="normal" in2="shape" result="effect1_innerShadow_101_38"/>
</filter>
<filter id="filter1_i_101_38" x="169" y="630" width="372.001" height="44" filterUnits="userSpaceOnUse" color-interpolation-filters="sRGB">
<feFlood flood-opacity="0" result="BackgroundImageFix"/>
<feBlend mode="normal" in="SourceGraphic" in2="BackgroundImageFix" result="shape"/>
<feColorMatrix in="SourceAlpha" type="matrix" values="0 0 0 0 0 0 0 0 0 0 0 0 0 0 0 0 0 0 127 0" result="hardAlpha"/>
<feOffset dy="4"/>
<feGaussianBlur stdDeviation="2"/>
<feComposite in2="hardAlpha" operator="arithmetic" k2="-1" k3="1"/>
<feColorMatrix type="matrix" values="0 0 0 0 0 0 0 0 0 0 0 0 0 0 0 0 0 0 0.25 0"/>
<feBlend mode="normal" in2="shape" result="effect1_innerShadow_101_38"/>
</filter>
<filter id="filter2_i_101_38" x="127" y="724" width="372.001" height="44" filterUnits="userSpaceOnUse" color-interpolation-filters="sRGB">
<feFlood flood-opacity="0" result="BackgroundImageFix"/>
<feBlend mode="normal" in="SourceGraphic" in2="BackgroundImageFix" result="shape"/>
<feColorMatrix in="SourceAlpha" type="matrix" values="0 0 0 0 0 0 0 0 0 0 0 0 0 0 0 0 0 0 127 0" result="hardAlpha"/>
<feOffset dy="4"/>
<feGaussianBlur stdDeviation="2"/>
<feComposite in2="hardAlpha" operator="arithmetic" k2="-1" k3="1"/>
<feColorMatrix type="matrix" values="0 0 0 0 0 0 0 0 0 0 0 0 0 0 0 0 0 0 0.25 0"/>
<feBlend mode="normal" in2="shape" result="effect1_innerShadow_101_38"/>
</filter>
</defs>
</svg>
